<svg width="453" height="519" viewBox="0 0 453 519" fill="none" xmlns="http://www.w3.org/2000/svg">
<path d="M260.388 342.689C258.43 343.77 255.728 342.236 257.101 341.476C285.234 325.964 375.766 274.066 375.766 274.066C376.657 273.57 377.139 273.351 377.797 273.058C378.629 272.679 379.871 274.84 379.17 275.293" fill="url(#paint0_linear_192_375)"/>
<path d="M286.563 338.701C284.606 339.782 281.903 338.248 283.276 337.489C311.409 321.976 401.942 270.079 401.942 270.079C402.833 269.582 403.315 269.363 403.972 269.071C404.804 268.691 406.046 270.853 405.345 271.306" fill="url(#paint1_linear_192_375)"/>
<path d="M299.081 342.689C297.124 343.77 294.421 342.236 295.794 341.476C323.927 325.964 414.46 274.066 414.46 274.066C415.351 273.57 415.833 273.351 416.49 273.058C417.322 272.679 418.564 274.84 417.863 275.293" fill="url(#paint2_linear_192_375)"/>
<path d="M301.111 353.162C299.154 354.243 296.452 352.709 297.825 351.949C311.497 344.412 363.964 314.425 371.063 310.379C371.603 310.072 372.173 309.867 372.787 309.78C375.518 309.342 383.522 308.115 386.196 308.042C387.057 308.027 387.89 307.735 388.576 307.238L416.154 290.105C416.154 290.105 423.326 285.737 423.983 285.445C424.816 285.065 427.314 286.818 426.598 287.256C426.481 287.329 396.917 305.924 390.183 310.16C389.292 310.729 388.27 311.065 387.203 311.182C387.203 311.182 375.649 312.205 372.889 313.096" fill="url(#paint3_linear_192_375)"/>
<path d="M252.734 336.057C250.791 337.153 250.893 340.147 252.252 339.373C265.836 331.675 318.888 302.637 326.06 298.722C326.6 298.43 327.067 298.051 327.447 297.583C329.171 295.524 334.181 289.476 335.539 287.285C335.977 286.57 336.635 286.015 337.438 285.693L366.593 271.101C366.593 271.101 374.087 267.26 374.685 266.865C375.445 266.354 375.036 263.433 374.276 263.812C374.145 263.871 342.697 279.412 335.525 282.947C334.575 283.415 333.757 284.087 333.144 284.919C333.144 284.919 326.6 294.005 324.438 295.874" fill="url(#paint4_linear_192_375)"/>
<path d="M315.338 356.2C313.381 357.281 310.679 355.747 312.052 354.988C325.037 347.83 357.084 328.111 364.285 323.656C365.264 323.057 366.33 322.634 367.455 322.415C372.275 321.465 385.801 319.289 388.401 318.778C389.701 318.515 402.102 310.773 402.789 310.276L430.366 293.143C430.366 293.143 437.538 288.775 438.196 288.483C439.028 288.103 441.526 289.856 440.81 290.294C440.693 290.367 400.101 315.389 391.585 320.647C390.548 321.29 389.409 321.713 388.197 321.933C388.197 321.933 371.297 324.752 367.265 326.008" fill="url(#paint5_linear_192_375)"/>
<path d="M243.575 334.567C241.676 335.721 241.852 338.701 243.195 337.898C255.874 330.244 289.061 312.321 296.539 308.29C297.547 307.749 298.424 307.034 299.154 306.186C302.265 302.564 310.518 292.164 312.198 290.207C313.045 289.228 325.987 282.334 326.775 281.998L355.492 266.646C355.492 266.646 362.869 262.615 363.453 262.191C364.198 261.651 363.701 258.758 362.956 259.153C362.825 259.226 320.757 281.91 311.92 286.672C310.854 287.242 309.919 288.016 309.16 288.936C309.16 288.936 298.76 301.892 295.721 304.697" fill="url(#paint6_linear_192_375)"/>
<path d="M164.231 335.473C166.203 336.525 168.876 334.947 167.503 334.217C139.137 319.099 47.8011 268.472 47.8011 268.472C46.8955 267.99 46.4135 267.771 45.7562 267.493C44.909 267.128 43.7112 269.304 44.4124 269.743" fill="url(#paint7_linear_192_375)"/>
<path d="M175.376 332.406C177.348 333.457 180.021 331.88 178.648 331.149C150.282 316.031 58.9461 265.405 58.9461 265.405C58.0405 264.922 57.5584 264.703 56.9011 264.426C56.0539 264.061 54.8562 266.237 55.5573 266.675" fill="url(#paint8_linear_192_375)"/>
<path d="M150.881 337.883C152.853 338.935 155.526 337.357 154.153 336.627C125.787 321.509 34.4506 270.882 34.4506 270.882C33.5449 270.4 33.0629 270.181 32.4056 269.903C31.5584 269.538 30.3607 271.715 31.0618 272.153" fill="url(#paint9_linear_192_375)"/>
<path d="M144.235 342.63C146.207 343.682 148.88 342.105 147.507 341.374C133.718 334.027 80.7978 304.784 73.6405 300.826C73.1 300.534 72.5304 300.329 71.9023 300.242C69.1562 299.847 61.1371 298.722 58.4641 298.693C57.6023 298.679 56.7551 298.416 56.0686 297.919L28.2281 281.18C28.2281 281.18 20.9978 276.915 20.3259 276.622C19.4787 276.257 17.0247 278.039 17.7405 278.478C17.8573 278.551 47.6989 296.721 54.5056 300.87C55.4113 301.425 56.4337 301.746 57.5 301.848C57.5 301.848 69.0686 302.71 71.8438 303.572" fill="url(#paint10_linear_192_375)"/>
<path d="M182.037 324.839C183.994 325.906 183.936 328.9 182.563 328.155C168.862 320.647 115.372 292.354 108.127 288.527C107.587 288.235 107.119 287.87 106.725 287.402C104.972 285.372 99.8596 279.383 98.4719 277.221C98.0191 276.52 97.3472 275.965 96.5584 275.658L67.1843 261.475C67.1843 261.475 59.6326 257.751 59.0191 257.342C58.2596 256.845 58.6247 253.924 59.3843 254.274C59.5157 254.333 91.2124 269.421 98.4281 272.868C99.3922 273.321 100.21 273.993 100.838 274.811C100.838 274.811 107.513 283.809 109.704 285.635" fill="url(#paint11_linear_192_375)"/>
<path d="M132.827 346.808C134.799 347.86 137.472 346.282 136.099 345.552C122.997 338.57 90.6573 319.303 83.3831 314.951C82.4045 314.366 81.3236 313.957 80.1843 313.753C75.3494 312.862 61.7798 310.89 59.1798 310.408C57.8652 310.174 45.3472 302.593 44.6607 302.097L16.8202 285.343C16.8202 285.343 9.58989 281.078 8.91798 280.785C8.07079 280.42 5.61685 282.202 6.33258 282.64C6.46404 282.714 47.4213 307.165 56.0101 312.307C57.0472 312.935 58.2011 313.344 59.4135 313.548C59.4135 313.548 76.3573 316.119 80.4034 317.331" fill="url(#paint12_linear_192_375)"/>
<path d="M311.336 83.6236C311.336 92.3584 311.38 124.596 311.394 135.667C311.394 137.391 313.22 138.487 314.754 137.683L345.224 120.067C347.356 118.957 349.051 118.212 349.065 115.817L349.255 79.4022C349.255 79.4022 341.367 70.7697 337.643 71.2225C337.599 71.2225 336.679 71.4416 336.635 71.4562C331.931 73.2382 324.935 75.9404 316.799 79.5337C313.147 81.1551 311.336 81.3742 311.336 83.6236Z" fill="#2600FF"/>
<path d="M88.6854 92.6067C88.6854 101.342 88.7292 133.579 88.7439 144.651C88.7439 146.374 90.5697 147.47 92.1034 146.666L122.573 129.051C124.706 127.94 126.4 127.196 126.415 124.8L126.605 88.3854C126.605 88.3854 118.717 79.7528 114.992 80.2056C114.948 80.2056 114.028 80.4247 113.984 80.4393C109.281 82.2214 102.284 84.9236 94.1483 88.5169C90.4967 90.1382 88.6854 90.3573 88.6854 92.6067Z" fill="#2600FF"/>
<path d="M191.444 322.707C193.372 323.831 193.226 326.811 191.882 326.022C179.087 318.558 145.622 301.089 138.085 297.16C137.063 296.634 136.172 295.933 135.427 295.085C132.257 291.507 123.844 281.224 122.135 279.281C121.273 278.317 108.215 271.612 107.426 271.276L78.4753 256.319C78.4753 256.319 71.0259 252.39 70.4416 251.981C69.6966 251.455 70.1495 248.548 70.8944 248.928C71.0259 249.001 113.444 271.086 122.354 275.731C123.435 276.286 124.384 277.046 125.144 277.952C125.144 277.952 135.748 290.762 138.83 293.522" fill="url(#paint13_linear_192_375)"/>
<path d="M252.967 470.907L349.942 418.79C357.376 414.554 358.589 403.745 358.589 395.507V357.558C350.058 352.914 100.02 347.933 91.373 352.373L94.2798 398.238C94.6888 404.256 98.209 410.493 103.672 413.59L212.01 470.702C223.652 476.998 241.253 477.071 252.967 470.907Z" fill="url(#paint14_linear_192_375)"/>
<path d="M249.623 423.289L351.884 369.404C360.751 364.73 360.824 352.68 352.03 347.889L237.002 285.343C228.472 280.698 218.014 280.581 209.366 285.021L96.9966 342.718C89.5326 346.545 89.4158 356.682 96.7776 360.67L211.981 423.07C223.652 429.38 237.908 429.467 249.623 423.289Z" fill="url(#paint15_linear_192_375)"/>
<path d="M241.633 393.403L315.601 354.885C321.59 351.555 320.845 344.456 314.9 341.038L235.512 297.861C229.743 294.545 220.876 294.078 215.034 297.247L137.633 335.444C128.065 340.629 129.015 344.69 136.552 349.569C136.888 349.788 137.224 349.992 137.574 350.167L216.202 393.243C224.061 397.771 233.701 397.829 241.633 393.403Z" fill="url(#paint16_linear_192_375)"/>
<path d="M235.454 376.503L284.43 350.591C288.126 348.342 288.097 341.243 284.43 338.935L231.525 309.21C227.961 306.975 220.657 307.326 217.035 309.458L167.839 334.085C163.267 336.364 161.12 342.879 166.057 346.267L219.255 376.153C224.104 379.206 230.561 379.483 235.454 376.503Z" fill="url(#paint17_linear_192_375)"/>
<path d="M236.272 376.065L281.334 352.227C284.869 350.197 285.263 345.303 281.757 343.229L232.094 315.316C228.691 313.3 221.694 313.621 218.247 315.535L171.199 337.722C166.831 339.767 165.122 345.333 169.826 348.371L220.497 376.854C225.142 379.6 231.598 378.753 236.272 376.065Z" fill="url(#paint18_linear_192_375)"/>
<path d="M266.771 445.038L266.902 435.719C266.917 434.215 267.764 432.842 269.137 432.082L334.371 395.945C335.627 395.244 337.205 396.106 337.205 397.493L337.19 407.221C337.19 408.507 336.474 409.69 335.306 410.347L269.94 446.791C268.524 447.58 266.742 446.601 266.771 445.038Z" fill="#01A0FE"/>
<path d="M187.617 440.13L187.485 430.811C187.471 429.307 186.624 427.934 185.251 427.174L120.017 391.037C118.761 390.336 117.183 391.198 117.183 392.585L117.198 402.313C117.198 403.599 117.914 404.782 119.082 405.439L184.447 441.883C185.864 442.672 187.646 441.693 187.617 440.13Z" fill="#01A0FE"/>
<path d="M187.617 437.925L187.5 431.176C187.5 429.336 186.799 428.036 185.557 427.364L123.844 393.155C122.705 392.527 121.142 393.681 121.083 394.835L121.142 401.422C121.098 402.489 121.302 403.453 122.354 404.037L184.345 438.874C185.66 439.575 187.588 439.225 187.617 437.925Z" fill="#00003F"/>
<path d="M266.771 442.818L266.888 436.07C266.888 434.229 267.589 432.929 268.83 432.257L330.544 398.048C331.683 397.42 333.246 398.574 333.305 399.728L333.246 406.316C333.29 407.382 333.085 408.346 332.034 408.93L270.043 443.767C268.728 444.454 266.815 444.103 266.771 442.818Z" fill="#00003F"/>
<path d="M300.001 416.643C298.029 415.591 295.356 417.169 296.729 417.899C325.096 433.017 416.431 483.644 416.431 483.644C417.337 484.126 417.819 484.345 418.476 484.623C419.324 484.988 420.521 482.811 419.82 482.373" fill="url(#paint19_linear_192_375)"/>
<path d="M292.625 420.733C290.653 419.681 287.98 421.258 289.353 421.989C317.719 437.107 409.055 487.734 409.055 487.734C409.961 488.216 410.443 488.435 411.1 488.712C411.947 489.078 413.145 486.901 412.444 486.463" fill="url(#paint20_linear_192_375)"/>
<path d="M306.647 412.962C304.675 411.91 302.002 413.488 303.375 414.218C331.742 429.336 423.077 479.963 423.077 479.963C423.983 480.445 424.465 480.664 425.122 480.942C425.97 481.307 427.167 479.13 426.466 478.692" fill="url(#paint21_linear_192_375)"/>
<path d="M314.827 407.762C312.855 406.71 310.182 408.288 311.555 409.018C325.344 416.365 378.264 445.608 385.421 449.566C385.962 449.858 386.531 450.063 387.16 450.15C389.906 450.545 397.925 451.67 400.598 451.699C401.46 451.713 402.307 451.976 402.993 452.473L430.834 469.227C430.834 469.227 438.064 473.492 438.736 473.784C439.583 474.149 442.037 472.367 441.321 471.929C441.204 471.856 411.363 453.685 404.556 449.537C403.651 448.982 402.628 448.661 401.562 448.558C401.562 448.558 389.993 447.697 387.218 446.835" fill="url(#paint22_linear_192_375)"/>
<path d="M283.276 427.802C281.319 426.736 281.378 423.742 282.751 424.486C296.452 431.994 349.942 460.288 357.186 464.115C357.727 464.407 358.194 464.772 358.589 465.239C360.342 467.27 365.454 473.258 366.842 475.42C367.294 476.121 367.966 476.676 368.755 476.983L398.129 491.166C398.129 491.166 405.681 494.891 406.294 495.3C407.054 495.797 406.689 498.718 405.929 498.367C405.798 498.309 374.101 483.22 366.885 479.773C365.921 479.32 365.103 478.648 364.475 477.83C364.475 477.83 357.8 468.833 355.609 467.007" fill="url(#paint23_linear_192_375)"/>
<path d="M326.366 401.773C324.394 400.721 321.721 402.299 323.094 403.029C336.197 410.011 368.536 429.277 375.81 433.63C376.789 434.215 377.87 434.624 379.009 434.828C383.844 435.719 397.414 437.691 400.014 438.173C401.328 438.407 413.846 445.988 414.533 446.484L442.373 463.238C442.373 463.238 449.603 467.503 450.275 467.795C451.122 468.161 453.576 466.379 452.861 465.94C452.729 465.867 411.772 441.416 403.183 436.274C402.146 435.646 400.992 435.237 399.78 435.032C399.78 435.032 382.836 432.462 378.79 431.249" fill="url(#paint24_linear_192_375)"/>
<path d="M272.219 433.309C270.291 432.184 270.437 429.204 271.781 429.993C284.576 437.457 318.04 454.927 325.578 458.856C326.6 459.382 327.491 460.083 328.236 460.93C331.406 464.509 339.819 474.792 341.528 476.735C342.39 477.699 355.448 484.403 356.237 484.739L385.188 499.697C385.188 499.697 392.637 503.626 393.221 504.035C393.966 504.561 393.514 507.467 392.769 507.088C392.637 507.015 350.219 484.929 341.309 480.284C340.228 479.729 339.279 478.97 338.519 478.064C338.519 478.064 327.915 465.254 324.833 462.493" fill="url(#paint25_linear_192_375)"/>
<path d="M153.262 412.845C155.234 411.793 157.907 413.371 156.534 414.101C128.167 429.219 36.8315 479.846 36.8315 479.846C35.9259 480.328 35.4438 480.547 34.7865 480.825C33.9393 481.19 32.7416 479.014 33.4427 478.575" fill="url(#paint26_linear_192_375)"/>
<path d="M160.638 416.935C162.61 415.883 165.283 417.461 163.91 418.191C135.544 433.309 44.2079 483.936 44.2079 483.936C43.3022 484.418 42.8202 484.637 42.1629 484.915C41.3157 485.28 40.118 483.103 40.8191 482.665" fill="url(#paint27_linear_192_375)"/>
<path d="M146.616 409.179C148.588 408.127 151.261 409.704 149.888 410.435C121.521 425.553 30.1854 476.18 30.1854 476.18C29.2798 476.662 28.7977 476.881 28.1404 477.158C27.2932 477.524 26.0955 475.347 26.7966 474.909" fill="url(#paint28_linear_192_375)"/>
<path d="M138.436 403.979C140.408 402.927 143.081 404.504 141.708 405.235C127.919 412.582 74.9989 441.825 67.8416 445.783C67.3011 446.075 66.7315 446.28 66.1034 446.367C63.3573 446.762 55.3382 447.887 52.6652 447.916C51.8034 447.93 50.9562 448.193 50.2697 448.69L22.4292 465.444C22.4292 465.444 15.1989 469.709 14.527 470.001C13.6798 470.366 11.2258 468.584 11.9416 468.146C12.0584 468.073 41.9 449.902 48.7067 445.754C49.6124 445.199 50.6348 444.878 51.7011 444.775C51.7011 444.775 63.2697 443.914 66.0449 443.052" fill="url(#paint29_linear_192_375)"/>
<path d="M169.987 424.005C171.944 422.938 171.885 419.944 170.512 420.689C156.811 428.197 103.321 456.49 96.0764 460.317C95.536 460.609 95.0685 460.974 94.6742 461.442C92.9214 463.472 87.809 469.461 86.4214 471.623C85.9685 472.324 85.2966 472.879 84.5079 473.185L55.1337 487.369C55.1337 487.369 47.582 491.093 46.9685 491.502C46.209 491.999 46.5742 494.92 47.3337 494.57C47.4652 494.511 79.1618 479.422 86.3775 475.975C87.3416 475.522 88.1596 474.851 88.7876 474.033C88.7876 474.033 95.4629 465.035 97.6539 463.209" fill="url(#paint30_linear_192_375)"/>
<path d="M126.897 397.99C128.869 396.938 131.542 398.516 130.169 399.246C117.066 406.228 84.727 425.494 77.4528 429.847C76.4742 430.431 75.3933 430.84 74.2539 431.045C69.4191 431.936 55.8494 433.908 53.2494 434.39C51.9348 434.624 39.4169 442.204 38.7303 442.701L10.8899 459.455C10.8899 459.455 3.65956 463.72 2.98765 464.012C2.14046 464.378 -0.313478 462.596 0.402253 462.157C0.533713 462.084 41.491 437.633 50.0798 432.491C51.1169 431.863 52.2708 431.454 53.4832 431.249C53.4832 431.249 70.427 428.679 74.473 427.466" fill="url(#paint31_linear_192_375)"/>
<path d="M181.044 429.511C182.972 428.386 182.826 425.407 181.482 426.195C168.687 433.66 135.222 451.129 127.685 455.058C126.663 455.584 125.772 456.285 125.027 457.133C121.857 460.711 113.444 470.994 111.735 472.937C110.873 473.901 97.8146 480.606 97.0259 480.942L68.0753 495.899C68.0753 495.899 60.6259 499.828 60.0416 500.237C59.2966 500.763 59.7494 503.67 60.4944 503.29C60.6258 503.217 103.044 481.131 111.954 476.486C113.035 475.931 113.984 475.172 114.744 474.266C114.744 474.266 125.348 461.456 128.43 458.695" fill="url(#paint32_linear_192_375)"/>
<path d="M154.825 444.381C155.248 443.271 153.057 441.576 152.765 442.351C149.961 449.727 141.182 467.795 139.196 471.856C138.933 472.411 138.86 473.025 138.976 473.682C139.502 476.516 141.43 484.476 141.708 486.01C141.854 486.77 138.348 493.766 138.085 494.146L130.373 509.688C130.373 509.688 128.445 513.734 128.372 514.113C128.27 514.595 130.592 516.173 130.797 515.779C130.826 515.706 142 492.831 144.352 488.026C144.629 487.442 144.702 486.784 144.542 486.068C144.542 486.068 142.219 476.121 142.219 473.784" fill="url(#paint33_linear_192_375)"/>
<path d="M298.161 447.448C297.737 446.338 299.928 444.644 300.22 445.418C303.025 452.794 311.803 470.863 313.79 474.924C314.053 475.479 314.126 476.092 314.009 476.749C313.483 479.583 311.555 487.544 311.278 489.077C311.132 489.837 314.637 496.834 314.9 497.213L322.612 512.755C322.612 512.755 324.54 516.801 324.614 517.181C324.716 517.663 322.393 519.24 322.189 518.846C322.16 518.773 310.985 495.899 308.634 491.093C308.356 490.509 308.283 489.852 308.444 489.136C308.444 489.136 310.766 479.189 310.766 476.852" fill="url(#paint34_linear_192_375)"/>
<path d="M353.842 417.081C352.658 416.964 351.592 419.52 352.425 419.608C360.269 420.382 380.017 424.136 384.457 424.983C385.056 425.1 385.67 425.012 386.283 424.72C388.883 423.479 396.055 419.52 397.457 418.848C398.158 418.512 405.827 420.061 406.265 420.221L423.282 423.596C423.282 423.596 427.693 424.399 428.073 424.37C428.57 424.34 429.475 421.682 429.052 421.594C428.979 421.58 403.972 416.789 398.714 415.781C398.085 415.664 397.428 415.766 396.771 416.102C396.771 416.102 387.773 420.952 385.524 421.565" fill="url(#paint35_linear_192_375)"/>
<path d="M102.912 410.99C104.095 410.873 105.162 413.429 104.329 413.517C96.4854 414.291 76.7371 418.045 72.2966 418.892C71.6978 419.009 71.0843 418.921 70.4708 418.629C67.8708 417.388 60.6989 413.429 59.2966 412.757C58.5955 412.421 50.927 413.97 50.4888 414.13L33.4719 417.504C33.4719 417.504 29.0607 418.308 28.6809 418.279C28.1843 418.249 27.2787 415.591 27.7023 415.503C27.7753 415.489 52.782 410.698 58.0404 409.69C58.6685 409.573 59.3258 409.675 59.9831 410.011C59.9831 410.011 68.9809 414.861 71.2303 415.474" fill="url(#paint36_linear_192_375)"/>
<path d="M92.6877 93.3955L92.8775 145.615C92.8775 146.622 93.9584 147.251 94.8348 146.783L127.744 130.979C130.68 129.401 130.49 126.144 130.461 123.719L130.052 90.0067C130.037 88.882 129.497 87.8303 128.606 87.1584L122.003 82.2359C120.382 81.0236 118.22 80.7606 116.351 81.5494L94.3528 90.8539C93.345 91.2775 92.6877 92.2854 92.6877 93.3955Z" fill="white"/>
<path d="M314.082 83.9449L314.272 136.164C314.272 137.172 315.353 137.8 316.229 137.333L348.802 121.528C351.797 119.921 351.884 116.693 351.855 114.269L351.446 80.5562C351.431 79.4314 350.891 78.3797 350 77.7078L343.398 72.7854C341.776 71.573 339.615 71.3101 337.745 72.0989L315.747 81.4033C314.739 81.8416 314.082 82.8494 314.082 83.9449Z" fill="white"/>
<path opacity="0.5804" d="M158.812 336.846L96.5438 5.0101L347.78 0.423584L290.814 336.393C290.098 340.965 287.921 348.356 284.445 350.591L237.294 375.539C230.692 379.79 223.564 379.907 215.808 374.225L166.057 346.267C163.56 344.456 159.528 340.395 158.812 336.846Z" fill="url(#paint37_linear_192_375)"/>
<path opacity="0.4902" d="M218.408 89.4078L164.83 184.834C162.771 188.515 162.639 192.97 164.494 196.767L220.555 311.065C222.98 316.017 230.079 315.915 232.372 310.904L283.861 197.994C285.935 193.437 285.687 188.149 283.16 183.811L228.37 89.364C226.135 85.4932 220.57 85.5224 218.408 89.4078Z" fill="url(#paint38_radial_192_375)"/>
<path opacity="0.2392" d="M269.21 433.017L333.304 397.508L333.246 405.98C333.231 407.002 332.925 408.434 332.019 408.93L270.028 443.767L269.21 433.017Z" fill="#38018D"/>
<path opacity="0.2392" d="M185.426 428.182L122.296 394.046C121.755 393.754 121.098 394.148 121.098 394.762L121.142 401.203C121.156 402.226 121.361 403.482 122.266 403.964L184.608 438.903L185.426 428.182Z" fill="#38018D"/>
<path d="M265.675 431.921L332.983 394.82C333.363 394.616 333.787 394.557 334.21 394.645L338.139 395.521C338.651 395.638 338.753 396.325 338.3 396.573L270.569 434.288C269.736 434.755 268.713 434.74 267.895 434.229L265.661 432.871C265.295 432.652 265.31 432.126 265.675 431.921Z" fill="url(#paint39_linear_192_375)"/>
<path d="M188.712 426.298L121.405 389.197C121.025 388.992 120.601 388.934 120.178 389.021L116.248 389.898C115.737 390.015 115.635 390.701 116.088 390.949L183.819 428.664C184.652 429.131 185.674 429.117 186.492 428.606L188.727 427.247C189.092 427.028 189.092 426.502 188.712 426.298Z" fill="url(#paint40_linear_192_375)"/>
<path opacity="0.6588" d="M308.254 445.213C312.788 445.213 316.463 442.846 316.463 439.926C316.463 437.006 312.788 434.638 308.254 434.638C303.72 434.638 300.045 437.006 300.045 439.926C300.045 442.846 303.72 445.213 308.254 445.213Z" fill="url(#paint41_radial_192_375)"/>
<path opacity="0.6588" d="M117.183 431.352C121.523 431.352 125.042 428.984 125.042 426.064C125.042 423.144 121.523 420.776 117.183 420.776C112.843 420.776 109.325 423.144 109.325 426.064C109.325 428.984 112.843 431.352 117.183 431.352Z" fill="url(#paint42_radial_192_375)"/>
<path opacity="0.6588" d="M121.098 469.972C125.438 469.972 128.956 467.605 128.956 464.684C128.956 461.764 125.438 459.397 121.098 459.397C116.758 459.397 113.239 461.764 113.239 464.684C113.239 467.605 116.758 469.972 121.098 469.972Z" fill="url(#paint43_radial_192_375)"/>
<path opacity="0.6588" d="M352.863 445.009C357.397 445.009 361.072 442.642 361.072 439.721C361.072 436.801 357.397 434.434 352.863 434.434C348.329 434.434 344.654 436.801 344.654 439.721C344.654 442.642 348.329 445.009 352.863 445.009Z" fill="url(#paint44_radial_192_375)"/>
<path opacity="0.6588" d="M342.288 416.467C345.918 416.467 348.861 414.44 348.861 411.939C348.861 409.439 345.918 407.411 342.288 407.411C338.657 407.411 335.715 409.439 335.715 411.939C335.715 414.44 338.657 416.467 342.288 416.467Z" fill="url(#paint45_radial_192_375)"/>
<path d="M308.093 442.862C310.909 442.862 313.191 441.456 313.191 439.721C313.191 437.987 310.909 436.581 308.093 436.581C305.278 436.581 302.996 437.987 302.996 439.721C302.996 441.456 305.278 442.862 308.093 442.862Z" fill="white" stroke="#ADEFFF" stroke-miterlimit="10"/>
<path d="M117.183 429.204C119.999 429.204 122.281 427.798 122.281 426.064C122.281 424.33 119.999 422.924 117.183 422.924C114.368 422.924 112.085 424.33 112.085 426.064C112.085 427.798 114.368 429.204 117.183 429.204Z" fill="white" stroke="#ADEFFF" stroke-miterlimit="10"/>
<path d="M352.863 442.862C355.678 442.862 357.961 441.456 357.961 439.721C357.961 437.987 355.678 436.581 352.863 436.581C350.048 436.581 347.765 437.987 347.765 439.721C347.765 441.456 350.048 442.862 352.863 442.862Z" fill="white" stroke="#FFBFDF" stroke-miterlimit="10"/>
<path d="M121.098 467.825C123.913 467.825 126.195 466.419 126.195 464.684C126.195 462.95 123.913 461.544 121.098 461.544C118.282 461.544 116 462.95 116 464.684C116 466.419 118.282 467.825 121.098 467.825Z" fill="white" stroke="#FFBFDF" stroke-miterlimit="10"/>
<path d="M342.302 414.276C344.359 414.276 346.027 413.132 346.027 411.72C346.027 410.308 344.359 409.164 342.302 409.164C340.245 409.164 338.578 410.308 338.578 411.72C338.578 413.132 340.245 414.276 342.302 414.276Z" fill="white" stroke="#00FBFF" stroke-miterlimit="10"/>
<path opacity="0.4314" d="M334.619 473.594C336.676 473.594 338.344 472.45 338.344 471.038C338.344 469.626 336.676 468.482 334.619 468.482C332.562 468.482 330.894 469.626 330.894 471.038C330.894 472.45 332.562 473.594 334.619 473.594Z" fill="white" stroke="#00FBFF" stroke-miterlimit="10"/>
<path opacity="0.7216" d="M65.4023 433.397C67.4594 433.397 69.127 432.252 69.127 430.84C69.127 429.429 67.4594 428.284 65.4023 428.284C63.3452 428.284 61.6776 429.429 61.6776 430.84C61.6776 432.252 63.3452 433.397 65.4023 433.397Z" fill="white" stroke="#00FBFF" stroke-miterlimit="10"/>
<path opacity="0.7216" d="M153.262 433.908C155.319 433.908 156.986 432.763 156.986 431.352C156.986 429.94 155.319 428.796 153.262 428.796C151.205 428.796 149.537 429.94 149.537 431.352C149.537 432.763 151.205 433.908 153.262 433.908Z" fill="white" stroke="#00FBFF" stroke-miterlimit="10"/>
<path opacity="0.4" d="M75.0573 288.425C77.1144 288.425 78.782 287.28 78.782 285.869C78.782 284.457 77.1144 283.312 75.0573 283.312C73.0002 283.312 71.3326 284.457 71.3326 285.869C71.3326 287.28 73.0002 288.425 75.0573 288.425Z" fill="white" stroke="#00FBFF" stroke-miterlimit="10"/>
<path opacity="0.4" d="M359.188 282.889C361.245 282.889 362.912 281.744 362.912 280.333C362.912 278.921 361.245 277.776 359.188 277.776C357.131 277.776 355.463 278.921 355.463 280.333C355.463 281.744 357.131 282.889 359.188 282.889Z" fill="white" stroke="#00FBFF" stroke-miterlimit="10"/>
<path opacity="0.4" d="M317.106 273.716C319.163 273.716 320.83 272.571 320.83 271.16C320.83 269.748 319.163 268.603 317.106 268.603C315.049 268.603 313.381 269.748 313.381 271.16C313.381 272.571 315.049 273.716 317.106 273.716Z" fill="white" stroke="#00FBFF" stroke-miterlimit="10"/>
<path opacity="0.4" d="M127.379 242.209C129.436 242.209 131.103 241.064 131.103 239.653C131.103 238.241 129.436 237.097 127.379 237.097C125.322 237.097 123.654 238.241 123.654 239.653C123.654 241.064 125.322 242.209 127.379 242.209Z" fill="white" stroke="#00FBFF" stroke-miterlimit="10"/>
<path opacity="0.4" d="M127.379 280.493C129.436 280.493 131.103 279.349 131.103 277.937C131.103 276.525 129.436 275.381 127.379 275.381C125.322 275.381 123.654 276.525 123.654 277.937C123.654 279.349 125.322 280.493 127.379 280.493Z" fill="white" stroke="#00FBFF" stroke-miterlimit="10"/>
<path d="M176.151 189.712L220.979 105.811C221.84 104.204 224.119 104.175 225.025 105.738L274.352 191.261C275.038 192.444 275.082 193.875 274.498 195.102L226.967 294.793C226.237 296.312 224.09 296.327 223.345 294.808L176.004 197.892C174.734 195.307 174.778 192.269 176.151 189.712Z" fill="white" stroke="white" stroke-miterlimit="10" stroke-linecap="round"/>
<path opacity="0.5804" d="M231.569 294.297C339.401 294.297 426.817 249.493 426.817 194.226C426.817 138.958 339.401 94.155 231.569 94.155C123.736 94.155 36.3202 138.958 36.3202 194.226C36.3202 249.493 123.736 294.297 231.569 294.297Z" stroke="white" stroke-miterlimit="10"/>
<path d="M177.334 191.597L223.973 218.561L226.631 292.997C226.661 294.034 224.528 294.384 224.075 293.449L176.676 194.956C176.165 193.51 176.428 191.1 177.334 191.597Z" fill="url(#paint46_linear_192_375)"/>
<path d="M271.153 190.793L223.33 217.144L224.922 292.529C224.937 293.566 226.164 294.253 226.573 293.303L272.876 193.744C273.315 192.283 272.029 190.253 271.153 190.793Z" fill="url(#paint47_linear_192_375)"/>
<path opacity="0.3804" d="M162.479 183.709C144.629 187.112 134.594 190.121 124.808 197.454C120.002 201.047 119.067 205.59 119.608 209.358C120.689 216.866 134.887 222.636 141.854 225.119C174.033 236.585 199.609 240.602 232.445 240.456C263.543 240.325 278.646 238.747 311.234 225.046C323.883 219.729 328.747 213.551 328.952 206.525C329.171 198.973 319.837 191.83 312.767 189.347C303.419 186.061 295.064 183.957 285.321 181.869" stroke="white" stroke-miterlimit="10" stroke-linecap="round"/>
<path d="M130.329 344.003L131.235 353.22C131.425 355.09 132.52 356.755 134.171 357.661L222.483 405.688C225.551 407.353 229.261 407.367 232.343 405.717L317.003 360.246C318.8 359.282 319.91 357.398 319.866 355.367L319.735 346.72C319.735 346.34 319.326 346.092 318.99 346.267L231.627 391.651C229.085 392.965 226.047 392.965 223.52 391.636L131.483 343.244C130.928 342.952 130.271 343.39 130.329 344.003Z" fill="url(#paint48_linear_192_375)"/>
<path d="M131.483 343.244L222.483 391.884C225.653 393.579 229.48 393.593 232.664 391.913L318.99 346.267" stroke="#2949FF" stroke-miterlimit="10" stroke-linecap="round"/>
<path d="M355.405 233.197C355.405 241.931 355.448 274.169 355.463 285.24C355.463 286.964 357.289 288.06 358.823 287.256L389.292 269.64C391.425 268.53 393.119 267.785 393.134 265.39L393.324 228.975C393.324 228.975 385.436 220.343 381.711 220.796C381.667 220.796 380.747 221.015 380.703 221.029C376 222.811 369.003 225.514 360.867 229.107C357.23 230.728 355.405 230.962 355.405 233.197Z" fill="#2600FF"/>
<path d="M54.0528 240.763C54.0528 249.498 54.0966 281.735 54.1113 292.807C54.1113 294.53 55.9371 295.626 57.4708 294.822L87.9405 277.207C90.073 276.097 91.7674 275.352 91.782 272.956L91.9719 236.542C91.9719 236.542 84.0843 227.909 80.3596 228.362C80.3157 228.362 79.3955 228.581 79.3517 228.596C74.6483 230.378 67.6517 233.08 59.5157 236.673C55.8787 238.294 54.0528 238.528 54.0528 240.763Z" fill="#2600FF"/>
<path d="M356.748 233.971L356.938 286.19C356.938 287.198 358.019 287.826 358.895 287.358L391.103 270.093C393.236 268.954 394.551 266.719 394.521 264.294L394.112 230.582C394.098 229.457 393.557 228.406 392.666 227.734L386.064 222.811C384.443 221.599 382.281 221.336 380.411 222.125L358.413 231.429C357.406 231.867 356.748 232.861 356.748 233.971Z" fill="url(#paint49_linear_192_375)"/>
<path d="M55.2798 241.537L55.4697 293.756C55.4697 294.764 56.5506 295.392 57.427 294.925L89.6349 277.66C91.7674 276.52 93.082 274.285 93.0528 271.861L92.6438 238.148C92.6292 237.024 92.0888 235.972 91.1978 235.3L84.5955 230.378C82.9742 229.165 80.8124 228.902 78.9427 229.691L56.945 238.995C55.9371 239.419 55.2798 240.427 55.2798 241.537Z" fill="url(#paint50_linear_192_375)"/>
<path d="M381.58 223.585L382.456 230.845C382.558 231.882 383.523 232.627 384.56 232.437L392.623 230.991C394.171 230.713 394.594 228.683 393.294 227.807L385.334 222.344C384.107 221.38 381.624 222.022 381.58 223.585Z" fill="#8FD6FF"/>
<path d="M80.1112 230.845L81.0169 238.703C81.1191 239.828 82.127 240.631 83.1933 240.427L91.5629 238.864C93.1697 238.557 93.6079 236.381 92.2641 235.417L84.0112 229.501C82.7258 228.449 80.1551 229.151 80.1112 230.845Z" fill="#8FD6FF"/>
<path d="M117.183 82.8494L118.089 90.7079C118.191 91.8326 119.199 92.636 120.265 92.4315L128.635 90.8685C130.242 90.5618 130.68 88.3854 129.336 87.4213L121.083 81.5056C119.798 80.4685 117.227 81.1697 117.183 82.8494Z" fill="#00A2FF"/>
<path d="M338.724 73.4865L339.629 81.3449C339.732 82.4696 340.739 83.273 341.806 83.0685L350.175 81.5056C351.782 81.1988 352.22 79.0224 350.876 78.0584L342.624 72.1427C341.353 71.1056 338.782 71.7921 338.724 73.4865Z" fill="#00A2FF"/>
<path d="M360.546 246.722V235.928C360.546 235.256 360.94 234.657 361.554 234.409L368.302 231.59C368.945 231.327 369.661 231.794 369.661 232.495L369.734 242.633C369.734 243.684 369.602 244.561 368.302 245.203L362.08 247.833C361.335 248.081 360.546 247.526 360.546 246.722Z" fill="#00D0FF"/>
<path d="M58.9169 254.873V244.079C58.9169 243.407 59.3112 242.808 59.9247 242.56L66.673 239.74C67.3157 239.478 68.0315 239.945 68.0315 240.646L68.1045 250.783C68.1045 251.835 67.973 252.711 66.673 253.354L60.4506 255.983C59.7202 256.231 58.9169 255.676 58.9169 254.873Z" fill="#00D0FF"/>
<path d="M96.836 107.681V96.8865C96.836 96.2146 97.2303 95.6157 97.8438 95.3674L104.592 92.5483C105.235 92.2854 105.951 92.7528 105.951 93.4539L106.024 103.591C106.024 104.643 105.892 105.519 104.592 106.162L98.3697 108.791C97.6247 109.039 96.836 108.484 96.836 107.681Z" fill="#5E97FF"/>
<path d="M318.128 97.2224V86.4281C318.128 85.7562 318.523 85.1573 319.136 84.909L325.884 82.0899C326.527 81.827 327.243 82.2944 327.243 82.9955L327.316 93.1326C327.316 94.1843 327.184 95.0606 325.884 95.7033L319.662 98.3326C318.931 98.5809 318.128 98.0258 318.128 97.2224Z" fill="#5E97FF"/>
<path d="M410.457 171.673L424.217 181.533C424.772 181.927 425.108 182.57 425.108 183.256V199.324C425.108 200.112 424.231 200.565 423.589 200.127L409.756 190.779C409.23 190.428 408.924 189.829 408.924 189.201L409.04 172.403C409.04 171.673 409.873 171.249 410.457 171.673Z" fill="url(#paint51_linear_192_375)"/>
<path d="M439.145 173.031L425.181 180.904C424.582 181.299 424.217 181.956 424.217 182.643V199.937C424.217 200.2 424.524 200.346 424.757 200.2L440.255 191.582C441.803 190.603 441.745 189.595 441.745 188.602L441.307 173.63C441.175 172.608 440.08 172.403 439.145 173.031Z" fill="url(#paint52_linear_192_375)"/>
<path d="M21.0708 175.938L35.9258 186.002C36.0573 186.09 36.218 186.104 36.3641 186.031L52.7236 177.764C53.3809 177.399 52.2562 176.406 51.6427 175.982L40.2787 168.182C39.0225 167.32 37.4011 167.218 36.0427 167.919L21.7135 175.31C21.4214 175.456 20.8079 175.763 21.0708 175.938Z" fill="url(#paint53_linear_192_375)"/>
<path d="M22.1079 175.719L35.8674 185.579C36.4225 185.973 36.7584 186.616 36.7584 187.302V203.37C36.7584 204.158 35.882 204.611 35.2393 204.173L21.4067 194.825C20.8809 194.474 20.5742 193.875 20.5742 193.247L20.691 176.449C20.691 175.719 21.5236 175.296 22.1079 175.719Z" fill="url(#paint54_linear_192_375)"/>
<path d="M50.7955 177.078L36.8315 184.951C36.2326 185.345 35.8674 186.002 35.8674 186.689V203.983C35.8674 204.246 36.1742 204.392 36.4079 204.246L51.9056 195.628C53.4539 194.649 53.3955 193.642 53.3955 192.648L52.9573 177.676C52.8405 176.654 51.7303 176.449 50.7955 177.078Z" fill="url(#paint55_linear_192_375)"/>
<path d="M272.876 280.26L284.869 288.147C284.971 288.22 285.102 288.22 285.219 288.162L298.409 281.676C298.935 281.399 298.029 280.61 297.533 280.274L288.36 274.154C287.352 273.482 286.037 273.394 284.942 273.949L273.373 279.748C273.169 279.88 272.672 280.128 272.876 280.26Z" fill="url(#paint56_linear_192_375)"/>
<path d="M273.724 280.099L284.825 287.826C285.278 288.133 285.54 288.644 285.54 289.184V301.79C285.54 302.403 284.839 302.769 284.313 302.418L273.154 295.085C272.73 294.808 272.482 294.34 272.482 293.844L272.57 280.654C272.584 280.084 273.242 279.763 273.724 280.099Z" fill="url(#paint57_linear_192_375)"/>
<path d="M296.875 281.151L285.613 287.329C285.131 287.636 284.839 288.147 284.839 288.688V302.257C284.839 302.462 285.088 302.579 285.278 302.462L297.781 295.699C299.037 294.939 298.979 294.136 298.979 293.362L298.628 281.618C298.511 280.815 297.62 280.669 296.875 281.151Z" fill="url(#paint58_linear_192_375)"/>
<path d="M154.226 280.391L166.218 288.279C166.32 288.352 166.452 288.352 166.569 288.293L179.758 281.808C180.284 281.53 179.379 280.742 178.882 280.406L169.709 274.285C168.701 273.614 167.387 273.526 166.291 274.081L154.722 279.88C154.518 280.011 154.021 280.26 154.226 280.391Z" fill="url(#paint59_linear_192_375)"/>
<path d="M155.073 280.23L166.174 287.957C166.627 288.264 166.89 288.775 166.89 289.316V301.921C166.89 302.535 166.189 302.9 165.663 302.549L154.503 295.217C154.08 294.939 153.831 294.472 153.831 293.975L153.919 280.785C153.919 280.216 154.591 279.894 155.073 280.23Z" fill="url(#paint60_linear_192_375)"/>
<path d="M178.21 281.282L166.948 287.461C166.466 287.767 166.174 288.279 166.174 288.819V302.389C166.174 302.593 166.422 302.71 166.612 302.593L179.116 295.83C180.372 295.071 180.313 294.267 180.313 293.493L179.963 281.749C179.861 280.961 178.97 280.8 178.21 281.282Z" fill="url(#paint61_linear_192_375)"/>
<path d="M162.712 95.3966L172.411 101.561C172.499 101.619 172.601 101.619 172.689 101.575L183.366 96.5067C183.79 96.2876 183.06 95.6742 182.665 95.4112L175.245 90.6348C174.427 90.109 173.361 90.0506 172.484 90.4742L163.121 95.0023C162.946 95.0899 162.552 95.2798 162.712 95.3966Z" fill="#0090FF"/>
<path d="M163.326 95.2213L172.309 101.269C172.674 101.517 172.893 101.911 172.893 102.32V112.165C172.893 112.647 172.324 112.925 171.9 112.662L162.873 106.936C162.537 106.717 162.333 106.352 162.333 105.972L162.406 95.6741C162.391 95.2213 162.931 94.9584 163.326 95.2213Z" fill="#52BFFF"/>
<path d="M182.125 96.0831L173.01 100.903C172.616 101.152 172.382 101.546 172.382 101.97V112.574C172.382 112.735 172.587 112.822 172.733 112.735L182.855 107.447C183.863 106.848 183.834 106.22 183.819 105.621L183.542 96.4483C183.454 95.8202 182.738 95.7033 182.125 96.0831Z" fill="#0051FF"/>
<path d="M258.299 92.2708L267.998 98.4348C268.085 98.4933 268.188 98.4933 268.275 98.4494L278.953 93.3809C279.376 93.1618 278.646 92.5483 278.252 92.2854L270.831 87.509C270.013 86.9831 268.947 86.9247 268.071 87.3483L258.708 91.8764C258.533 91.9786 258.124 92.1685 258.299 92.2708Z" fill="#0288E0"/>
<path d="M258.985 92.1393L267.969 98.1865C268.334 98.4348 268.553 98.8292 268.553 99.2382V109.083C268.553 109.565 267.983 109.843 267.56 109.58L258.533 103.854C258.197 103.635 257.992 103.27 257.992 102.89L258.065 92.5921C258.051 92.1393 258.591 91.8764 258.985 92.1393Z" fill="#00CCFF"/>
<path d="M277.711 92.9719L268.597 97.7921C268.202 98.0404 267.969 98.4348 267.969 98.8584V109.463C267.969 109.624 268.173 109.711 268.319 109.624L278.442 104.336C279.449 103.737 279.42 103.109 279.406 102.51L279.128 93.3371C279.04 92.709 278.31 92.5921 277.711 92.9719Z" fill="#2061E3"/>
<path d="M409.42 171.892L424.275 181.956C424.407 182.044 424.567 182.058 424.714 181.985L441.073 173.718C441.73 173.353 440.606 172.36 439.992 171.936L428.628 164.136C427.372 163.274 425.751 163.172 424.392 163.873L410.048 171.264C409.771 171.41 409.157 171.717 409.42 171.892Z" fill="url(#paint62_linear_192_375)"/>
<path d="M360.721 252.112L390.534 238.703" stroke="#00CCFF" stroke-width="0.5" stroke-miterlimit="10" stroke-linecap="round"/>
<path d="M360.721 254.581L390.534 241.172" stroke="#00CCFF" stroke-width="0.5" stroke-miterlimit="10" stroke-linecap="round"/>
<path d="M318.055 101.824L347.882 88.4146" stroke="#5E97FF" stroke-width="0.5" stroke-miterlimit="10" stroke-linecap="round"/>
<path d="M318.055 104.57L347.882 91.1606" stroke="#5E97FF" stroke-width="0.5" stroke-miterlimit="10" stroke-linecap="round"/>
<path d="M318.055 107.564L347.882 94.155" stroke="#5E97FF" stroke-width="0.5" stroke-miterlimit="10" stroke-linecap="round"/>
<path d="M96.6753 113.436L126.488 100.012" stroke="#5E97FF" stroke-width="0.5" stroke-miterlimit="10" stroke-linecap="round"/>
<path d="M96.6753 116.357L126.488 102.948" stroke="#5E97FF" stroke-width="0.5" stroke-miterlimit="10" stroke-linecap="round"/>
<path d="M96.836 119.103L126.663 105.694" stroke="#5E97FF" stroke-width="0.5" stroke-miterlimit="10" stroke-linecap="round"/>
<path d="M96.6753 121.981L126.488 108.572" stroke="#5E97FF" stroke-width="0.5" stroke-miterlimit="10" stroke-linecap="round"/>
<path d="M96.836 124.785L126.663 111.376" stroke="#5E97FF" stroke-width="0.5" stroke-miterlimit="10" stroke-linecap="round"/>
<path d="M97.9315 138.472L127.758 125.063" stroke="#5E97FF" stroke-width="0.5" stroke-miterlimit="10" stroke-linecap="round"/>
<path d="M97.9315 136.281L127.758 122.872" stroke="#5E97FF" stroke-width="0.5" stroke-miterlimit="10" stroke-linecap="round"/>
<path d="M318.055 110.485L347.882 97.0764" stroke="#5E97FF" stroke-width="0.5" stroke-miterlimit="10" stroke-linecap="round"/>
<path d="M318.055 113.436L347.882 100.012" stroke="#5E97FF" stroke-width="0.5" stroke-miterlimit="10" stroke-linecap="round"/>
<path d="M318.128 129.576L347.955 116.153" stroke="#5E97FF" stroke-width="0.5" stroke-miterlimit="10" stroke-linecap="round"/>
<path d="M318.128 126.816L347.955 113.392" stroke="#5E97FF" stroke-width="0.5" stroke-miterlimit="10" stroke-linecap="round"/>
<path d="M360.721 257.137L390.534 243.728" stroke="#00CCFF" stroke-width="0.5" stroke-miterlimit="10" stroke-linecap="round"/>
<path d="M360.721 260.117L390.534 246.708" stroke="#00CCFF" stroke-width="0.5" stroke-miterlimit="10" stroke-linecap="round"/>
<path d="M360.721 263.184L390.534 249.775" stroke="#00CCFF" stroke-width="0.5" stroke-miterlimit="10" stroke-linecap="round"/>
<path d="M361.496 276.579L390.782 262.03" stroke="#00B1DE" stroke-width="0.5" stroke-miterlimit="10" stroke-linecap="round"/>
<path d="M361.043 278.901L390.242 264.207" stroke="#00B1DE" stroke-width="0.5" stroke-miterlimit="10" stroke-linecap="round"/>
<path d="M361.072 280.946L390.212 266.12" stroke="#00B1DE" stroke-width="0.5" stroke-miterlimit="10" stroke-linecap="round"/>
<path d="M361.072 280.946L390.212 266.12" stroke="#00B1DE" stroke-width="0.5" stroke-miterlimit="10" stroke-linecap="round"/>
<path d="M60.4798 287.899L89.6202 273.073" stroke="#00B1DE" stroke-width="0.5" stroke-miterlimit="10" stroke-linecap="round"/>
<path d="M60.4944 285.387L89.6056 270.488" stroke="#00B1DE" stroke-width="0.5" stroke-miterlimit="10" stroke-linecap="round"/>
<path d="M60.4944 282.83L89.6056 267.931" stroke="#00B1DE" stroke-width="0.5" stroke-miterlimit="10" stroke-linecap="round"/>
<path d="M59.2528 260.161L89.0798 246.737" stroke="#00B1DE" stroke-width="0.5" stroke-miterlimit="10" stroke-linecap="round"/>
<path d="M59.2528 262.162L89.0798 248.753" stroke="#00B1DE" stroke-width="0.5" stroke-miterlimit="10" stroke-linecap="round"/>
<path d="M59.2528 263.988L89.0798 250.579" stroke="#00B1DE" stroke-width="0.5" stroke-miterlimit="10" stroke-linecap="round"/>
<path d="M59.2528 265.916L89.0798 252.507" stroke="#00B1DE" stroke-width="0.5" stroke-miterlimit="10" stroke-linecap="round"/>
<defs>
<linearGradient id="paint0_linear_192_375" x1="262.552" y1="322.786" x2="375.754" y2="292.988" gradientUnits="userSpaceOnUse">
<stop stop-color="white"/>
<stop offset="1" stop-color="#01A0FE"/>
</linearGradient>
<linearGradient id="paint1_linear_192_375" x1="286.38" y1="338.96" x2="419.813" y2="259.31" gradientUnits="userSpaceOnUse">
<stop stop-color="white"/>
<stop offset="0.1022" stop-color="#FAFDFF"/>
<stop offset="0.2262" stop-color="#EBF8FF"/>
<stop offset="0.3614" stop-color="#D2EEFF"/>
<stop offset="0.5047" stop-color="#B0E2FF"/>
<stop offset="0.6545" stop-color="#84D1FF"/>
<stop offset="0.8095" stop-color="#4EBDFE"/>
<stop offset="0.9662" stop-color="#10A5FE"/>
<stop offset="1" stop-color="#01A0FE"/>
</linearGradient>
<linearGradient id="paint2_linear_192_375" x1="331.944" y1="323.964" x2="431.197" y2="261.765" gradientUnits="userSpaceOnUse">
<stop stop-color="white"/>
<stop offset="1" stop-color="#01A0FE"/>
</linearGradient>
<linearGradient id="paint3_linear_192_375" x1="299.024" y1="330.543" x2="436.589" y2="306.306" gradientUnits="userSpaceOnUse">
<stop stop-color="white"/>
<stop offset="0.4898" stop-color="#83D0FF"/>
<stop offset="1" stop-color="#01A0FE"/>
</linearGradient>
<linearGradient id="paint4_linear_192_375" x1="273.836" y1="350.639" x2="360.074" y2="244.033" gradientUnits="userSpaceOnUse">
<stop stop-color="white"/>
<stop offset="0.4898" stop-color="#83D0FF"/>
<stop offset="1" stop-color="#01A0FE"/>
</linearGradient>
<linearGradient id="paint5_linear_192_375" x1="311.21" y1="323.444" x2="441.431" y2="321.53" gradientUnits="userSpaceOnUse">
<stop stop-color="white"/>
<stop offset="1" stop-color="#01A0FE"/>
</linearGradient>
<linearGradient id="paint6_linear_192_375" x1="273.246" y1="354.457" x2="333.104" y2="242.954" gradientUnits="userSpaceOnUse">
<stop stop-color="white"/>
<stop offset="1" stop-color="#01A0FE"/>
</linearGradient>
<linearGradient id="paint7_linear_192_375" x1="161.786" y1="315.577" x2="48.0969" y2="287.431" gradientUnits="userSpaceOnUse">
<stop stop-color="white"/>
<stop offset="1" stop-color="#01A0FE"/>
</linearGradient>
<linearGradient id="paint8_linear_192_375" x1="175.575" y1="332.655" x2="40.8973" y2="254.924" gradientUnits="userSpaceOnUse">
<stop stop-color="white"/>
<stop offset="0.1022" stop-color="#FAFDFF"/>
<stop offset="0.2262" stop-color="#EBF8FF"/>
<stop offset="0.3614" stop-color="#D2EEFF"/>
<stop offset="0.5047" stop-color="#B0E2FF"/>
<stop offset="0.6545" stop-color="#84D1FF"/>
<stop offset="0.8095" stop-color="#4EBDFE"/>
<stop offset="0.9662" stop-color="#10A5FE"/>
<stop offset="1" stop-color="#01A0FE"/>
</linearGradient>
<linearGradient id="paint9_linear_192_375" x1="117.737" y1="319.624" x2="17.5136" y2="258.851" gradientUnits="userSpaceOnUse">
<stop stop-color="white"/>
<stop offset="1" stop-color="#01A0FE"/>
</linearGradient>
<linearGradient id="paint10_linear_192_375" x1="145.989" y1="319.963" x2="8.01719" y2="297.741" gradientUnits="userSpaceOnUse">
<stop stop-color="white"/>
<stop offset="0.4898" stop-color="#83D0FF"/>
<stop offset="1" stop-color="#01A0FE"/>
</linearGradient>
<linearGradient id="paint11_linear_192_375" x1="161.17" y1="339.728" x2="73.3043" y2="234.316" gradientUnits="userSpaceOnUse">
<stop stop-color="white"/>
<stop offset="0.4898" stop-color="#83D0FF"/>
<stop offset="1" stop-color="#01A0FE"/>
</linearGradient>
<linearGradient id="paint12_linear_192_375" x1="136.472" y1="313.956" x2="6.18593" y2="313.956" gradientUnits="userSpaceOnUse">
<stop stop-color="white"/>
<stop offset="1" stop-color="#01A0FE"/>
</linearGradient>
<linearGradient id="paint13_linear_192_375" x1="162.094" y1="343.052" x2="100.55" y2="232.351" gradientUnits="userSpaceOnUse">
<stop stop-color="white"/>
<stop offset="1" stop-color="#01A0FE"/>
</linearGradient>
<linearGradient id="paint14_linear_192_375" x1="131.84" y1="409.251" x2="394.343" y2="419.594" gradientUnits="userSpaceOnUse">
<stop stop-color="#2B52FF"/>
<stop offset="0.0657" stop-color="#2A4FF9"/>
<stop offset="0.1522" stop-color="#2746E9"/>
<stop offset="0.2503" stop-color="#2237CD"/>
<stop offset="0.3571" stop-color="#1B22A7"/>
<stop offset="0.4696" stop-color="#120877"/>
<stop offset="0.4989" stop-color="#100069"/>
<stop offset="0.5643" stop-color="#15036D"/>
<stop offset="0.6389" stop-color="#220E78"/>
<stop offset="0.7179" stop-color="#391E8B"/>
<stop offset="0.8002" stop-color="#5936A5"/>
<stop offset="0.8848" stop-color="#8254C7"/>
<stop offset="0.9703" stop-color="#B479EF"/>
<stop offset="1" stop-color="#C787FF"/>
</linearGradient>
<linearGradient id="paint15_linear_192_375" x1="131.146" y1="406.962" x2="323.637" y2="301.967" gradientUnits="userSpaceOnUse">
<stop stop-color="white"/>
<stop offset="0.2647" stop-color="#DCF2FF"/>
<stop offset="0.5765" stop-color="#B9E6FF"/>
<stop offset="0.8329" stop-color="#A4DEFF"/>
<stop offset="1" stop-color="#9CDBFF"/>
</linearGradient>
<linearGradient id="paint16_linear_192_375" x1="321.095" y1="287.795" x2="171.944" y2="378.339" gradientUnits="userSpaceOnUse">
<stop stop-color="#008EED"/>
<stop offset="1" stop-color="#BDEDFF"/>
</linearGradient>
<linearGradient id="paint17_linear_192_375" x1="225.21" y1="301.38" x2="225.21" y2="325.999" gradientUnits="userSpaceOnUse">
<stop stop-color="#0000FF"/>
<stop offset="0.2343" stop-color="#0300FF"/>
<stop offset="0.4179" stop-color="#0D00FF"/>
<stop offset="0.5843" stop-color="#1E00FF"/>
<stop offset="0.7406" stop-color="#3500FF"/>
<stop offset="0.8883" stop-color="#5300FF"/>
<stop offset="1" stop-color="#6F00FF"/>
</linearGradient>
<linearGradient id="paint18_linear_192_375" x1="225.601" y1="310.991" x2="225.601" y2="394.766" gradientUnits="userSpaceOnUse">
<stop stop-color="#00003F"/>
<stop offset="0.1875" stop-color="#020042"/>
<stop offset="0.3345" stop-color="#07004C"/>
<stop offset="0.4678" stop-color="#11005D"/>
<stop offset="0.593" stop-color="#1F0074"/>
<stop offset="0.7125" stop-color="#300092"/>
<stop offset="0.8277" stop-color="#4600B8"/>
<stop offset="0.9375" stop-color="#5F00E3"/>
<stop offset="1" stop-color="#6F00FF"/>
</linearGradient>
<linearGradient id="paint19_linear_192_375" x1="302.451" y1="436.53" x2="416.14" y2="464.675" gradientUnits="userSpaceOnUse">
<stop stop-color="white"/>
<stop offset="1" stop-color="#01A0FE"/>
</linearGradient>
<linearGradient id="paint20_linear_192_375" x1="292.422" y1="420.473" x2="427.099" y2="498.203" gradientUnits="userSpaceOnUse">
<stop stop-color="white"/>
<stop offset="0.1022" stop-color="#FAFDFF"/>
<stop offset="0.2262" stop-color="#EBF8FF"/>
<stop offset="0.3614" stop-color="#D2EEFF"/>
<stop offset="0.5047" stop-color="#B0E2FF"/>
<stop offset="0.6545" stop-color="#84D1FF"/>
<stop offset="0.8095" stop-color="#4EBDFE"/>
<stop offset="0.9662" stop-color="#10A5FE"/>
<stop offset="1" stop-color="#01A0FE"/>
</linearGradient>
<linearGradient id="paint21_linear_192_375" x1="339.788" y1="431.218" x2="440.012" y2="491.992" gradientUnits="userSpaceOnUse">
<stop stop-color="white"/>
<stop offset="1" stop-color="#01A0FE"/>
</linearGradient>
<linearGradient id="paint22_linear_192_375" x1="313.08" y1="430.429" x2="451.051" y2="452.651" gradientUnits="userSpaceOnUse">
<stop stop-color="white"/>
<stop offset="0.4898" stop-color="#83D0FF"/>
<stop offset="1" stop-color="#01A0FE"/>
</linearGradient>
<linearGradient id="paint23_linear_192_375" x1="304.147" y1="412.904" x2="392.013" y2="518.316" gradientUnits="userSpaceOnUse">
<stop stop-color="white"/>
<stop offset="0.4898" stop-color="#83D0FF"/>
<stop offset="1" stop-color="#01A0FE"/>
</linearGradient>
<linearGradient id="paint24_linear_192_375" x1="322.712" y1="434.627" x2="452.997" y2="434.627" gradientUnits="userSpaceOnUse">
<stop stop-color="white"/>
<stop offset="1" stop-color="#01A0FE"/>
</linearGradient>
<linearGradient id="paint25_linear_192_375" x1="301.574" y1="412.953" x2="363.118" y2="523.653" gradientUnits="userSpaceOnUse">
<stop stop-color="white"/>
<stop offset="1" stop-color="#01A0FE"/>
</linearGradient>
<linearGradient id="paint26_linear_192_375" x1="150.812" y1="432.743" x2="37.1227" y2="460.888" gradientUnits="userSpaceOnUse">
<stop stop-color="white"/>
<stop offset="1" stop-color="#01A0FE"/>
</linearGradient>
<linearGradient id="paint27_linear_192_375" x1="160.841" y1="416.686" x2="26.1638" y2="494.416" gradientUnits="userSpaceOnUse">
<stop stop-color="white"/>
<stop offset="0.1022" stop-color="#FAFDFF"/>
<stop offset="0.2262" stop-color="#EBF8FF"/>
<stop offset="0.3614" stop-color="#D2EEFF"/>
<stop offset="0.5047" stop-color="#B0E2FF"/>
<stop offset="0.6545" stop-color="#84D1FF"/>
<stop offset="0.8095" stop-color="#4EBDFE"/>
<stop offset="0.9662" stop-color="#10A5FE"/>
<stop offset="1" stop-color="#01A0FE"/>
</linearGradient>
<linearGradient id="paint28_linear_192_375" x1="113.475" y1="427.431" x2="13.2514" y2="488.205" gradientUnits="userSpaceOnUse">
<stop stop-color="white"/>
<stop offset="1" stop-color="#01A0FE"/>
</linearGradient>
<linearGradient id="paint29_linear_192_375" x1="140.183" y1="426.642" x2="2.21188" y2="448.864" gradientUnits="userSpaceOnUse">
<stop stop-color="white"/>
<stop offset="0.4898" stop-color="#83D0FF"/>
<stop offset="1" stop-color="#01A0FE"/>
</linearGradient>
<linearGradient id="paint30_linear_192_375" x1="149.118" y1="409.118" x2="61.2517" y2="514.53" gradientUnits="userSpaceOnUse">
<stop stop-color="white"/>
<stop offset="0.4898" stop-color="#83D0FF"/>
<stop offset="1" stop-color="#01A0FE"/>
</linearGradient>
<linearGradient id="paint31_linear_192_375" x1="130.551" y1="430.84" x2="0.26553" y2="430.84" gradientUnits="userSpaceOnUse">
<stop stop-color="white"/>
<stop offset="1" stop-color="#01A0FE"/>
</linearGradient>
<linearGradient id="paint32_linear_192_375" x1="151.688" y1="409.17" x2="90.1442" y2="519.87" gradientUnits="userSpaceOnUse">
<stop stop-color="white"/>
<stop offset="1" stop-color="#01A0FE"/>
</linearGradient>
<linearGradient id="paint33_linear_192_375" x1="133.209" y1="441.06" x2="120.749" y2="501.454" gradientUnits="userSpaceOnUse">
<stop stop-color="#C8EBFF"/>
<stop offset="1" stop-color="#01A0FE"/>
</linearGradient>
<linearGradient id="paint34_linear_192_375" x1="319.773" y1="444.121" x2="332.234" y2="504.515" gradientUnits="userSpaceOnUse">
<stop stop-color="#C8EBFF"/>
<stop offset="1" stop-color="#01A0FE"/>
</linearGradient>
<linearGradient id="paint35_linear_192_375" x1="356.311" y1="438.806" x2="417.862" y2="435.027" gradientUnits="userSpaceOnUse">
<stop stop-color="#C8EBFF"/>
<stop offset="1" stop-color="#01A0FE"/>
</linearGradient>
<linearGradient id="paint36_linear_192_375" x1="100.442" y1="432.717" x2="38.8916" y2="428.938" gradientUnits="userSpaceOnUse">
<stop stop-color="#C8EBFF"/>
<stop offset="1" stop-color="#01A0FE"/>
</linearGradient>
<linearGradient id="paint37_linear_192_375" x1="222.154" y1="370.658" x2="222.154" y2="39.8614" gradientUnits="userSpaceOnUse">
<stop stop-color="white"/>
<stop offset="0.176" stop-color="#D8F0FF"/>
<stop offset="0.5237" stop-color="#80CFFE"/>
<stop offset="1" stop-color="#01A0FE"/>
</linearGradient>
<radialGradient id="paint38_radial_192_375" cx="0" cy="0" r="1" gradientUnits="userSpaceOnUse" gradientTransform="translate(221.918 201.998) scale(126.609 126.609)">
<stop stop-color="white"/>
<stop offset="0.1104" stop-color="#EDF8FF"/>
<stop offset="0.331" stop-color="#C0E7FF"/>
<stop offset="0.6413" stop-color="#76CCFE"/>
<stop offset="1" stop-color="#18A9FE"/>
</radialGradient>
<linearGradient id="paint39_linear_192_375" x1="251.283" y1="442.463" x2="346.244" y2="389.699" gradientUnits="userSpaceOnUse">
<stop stop-color="#66C7FF"/>
<stop offset="0.0943" stop-color="#51B1FF"/>
<stop offset="0.2541" stop-color="#3491FF"/>
<stop offset="0.4207" stop-color="#1D78FF"/>
<stop offset="0.5947" stop-color="#0D67FF"/>
<stop offset="0.7807" stop-color="#035CFF"/>
<stop offset="1" stop-color="#0059FF"/>
</linearGradient>
<linearGradient id="paint40_linear_192_375" x1="179.384" y1="415.725" x2="98.0958" y2="395.152" gradientUnits="userSpaceOnUse">
<stop stop-color="#01A0FE"/>
<stop offset="0.0182" stop-color="#06A2FE"/>
<stop offset="0.1619" stop-color="#2DB1FE"/>
<stop offset="0.3109" stop-color="#4DBDFF"/>
<stop offset="0.4648" stop-color="#66C6FF"/>
<stop offset="0.6256" stop-color="#77CDFF"/>
<stop offset="0.7975" stop-color="#82D1FF"/>
<stop offset="1" stop-color="#85D2FF"/>
</linearGradient>
<radialGradient id="paint41_radial_192_375" cx="0" cy="0" r="1" gradientUnits="userSpaceOnUse" gradientTransform="translate(308.251 439.922) scale(9.36741 9.36743)">
<stop stop-color="white"/>
<stop offset="1" stop-color="#01A0FE"/>
</radialGradient>
<radialGradient id="paint42_radial_192_375" cx="0" cy="0" r="1" gradientUnits="userSpaceOnUse" gradientTransform="translate(117.165 426.062) rotate(180) scale(8.95154 9.36743)">
<stop stop-color="white"/>
<stop offset="1" stop-color="#01A0FE"/>
</radialGradient>
<radialGradient id="paint43_radial_192_375" cx="0" cy="0" r="1" gradientUnits="userSpaceOnUse" gradientTransform="translate(121.076 464.688) rotate(180) scale(8.95153 9.36746)">
<stop stop-color="white"/>
<stop offset="1" stop-color="#01A0FE"/>
</radialGradient>
<radialGradient id="paint44_radial_192_375" cx="0" cy="0" r="1" gradientUnits="userSpaceOnUse" gradientTransform="translate(352.863 439.718) scale(9.36744 9.36743)">
<stop stop-color="white"/>
<stop offset="1" stop-color="#01A0FE"/>
</radialGradient>
<radialGradient id="paint45_radial_192_375" cx="0" cy="0" r="1" gradientUnits="userSpaceOnUse" gradientTransform="translate(342.291 411.918) scale(7.49397 8.00917)">
<stop stop-color="white"/>
<stop offset="1" stop-color="#01A0FE"/>
</radialGradient>
<linearGradient id="paint46_linear_192_375" x1="213.328" y1="290.371" x2="181.741" y2="87.7842" gradientUnits="userSpaceOnUse">
<stop stop-color="#03C4FF"/>
<stop offset="0.3205" stop-color="#2164FF"/>
<stop offset="0.5098" stop-color="#342AFF"/>
<stop offset="1" stop-color="#640CFF"/>
</linearGradient>
<linearGradient id="paint47_linear_192_375" x1="257.177" y1="246.3" x2="221.042" y2="228.99" gradientUnits="userSpaceOnUse">
<stop stop-color="#05BCFF"/>
<stop offset="0.0968" stop-color="#0EA0F8"/>
<stop offset="0.3068" stop-color="#2657E8"/>
<stop offset="0.5328" stop-color="#4202D4"/>
<stop offset="1" stop-color="#1800A9"/>
</linearGradient>
<linearGradient id="paint48_linear_192_375" x1="136.993" y1="375.049" x2="322.206" y2="375.049" gradientUnits="userSpaceOnUse">
<stop stop-color="#59C8FF"/>
<stop offset="0.0354" stop-color="#5CBAFF"/>
<stop offset="0.1569" stop-color="#6690FF"/>
<stop offset="0.2669" stop-color="#6C72FF"/>
<stop offset="0.3605" stop-color="#7160FF"/>
<stop offset="0.4268" stop-color="#7259FF"/>
<stop offset="0.4811" stop-color="#5743EC"/>
<stop offset="0.5662" stop-color="#3326D4"/>
<stop offset="0.6459" stop-color="#1811C2"/>
<stop offset="0.7171" stop-color="#0904B7"/>
<stop offset="0.7729" stop-color="#0300B3"/>
<stop offset="0.8083" stop-color="#0E0DBB"/>
<stop offset="0.8732" stop-color="#2A2ECF"/>
<stop offset="0.9599" stop-color="#5764EF"/>
<stop offset="1" stop-color="#6E7FFF"/>
</linearGradient>
<linearGradient id="paint49_linear_192_375" x1="378.886" y1="239.149" x2="357.375" y2="307.51" gradientUnits="userSpaceOnUse">
<stop stop-color="white"/>
<stop offset="0.2828" stop-color="#BEE7FF"/>
<stop offset="0.6277" stop-color="#75CCFF"/>
<stop offset="0.8758" stop-color="#48BBFF"/>
<stop offset="1" stop-color="#36B5FF"/>
</linearGradient>
<linearGradient id="paint50_linear_192_375" x1="83.8063" y1="236.352" x2="50.0132" y2="309.257" gradientUnits="userSpaceOnUse">
<stop stop-color="white"/>
<stop offset="0.1129" stop-color="#F1FAFF"/>
<stop offset="0.7187" stop-color="#A8DFFF"/>
<stop offset="1" stop-color="#8CD5FF"/>
</linearGradient>
<linearGradient id="paint51_linear_192_375" x1="413.355" y1="176.066" x2="423.076" y2="203.004" gradientUnits="userSpaceOnUse">
<stop stop-color="#E0FFFF"/>
<stop offset="1" stop-color="#8FFBFF"/>
</linearGradient>
<linearGradient id="paint52_linear_192_375" x1="424.52" y1="184.553" x2="448.701" y2="190.368" gradientUnits="userSpaceOnUse">
<stop stop-color="#006A7A"/>
<stop offset="0.216" stop-color="#008D9D"/>
<stop offset="0.5784" stop-color="#00C1D2"/>
<stop offset="0.8509" stop-color="#00E2F3"/>
<stop offset="1" stop-color="#00EEFF"/>
</linearGradient>
<linearGradient id="paint53_linear_192_375" x1="22.8062" y1="185.623" x2="43.1788" y2="172.749" gradientUnits="userSpaceOnUse">
<stop stop-color="#F92891"/>
<stop offset="1" stop-color="#FF8FC7"/>
</linearGradient>
<linearGradient id="paint54_linear_192_375" x1="27.0315" y1="183.184" x2="38.0666" y2="230.861" gradientUnits="userSpaceOnUse">
<stop stop-color="#FFABD5"/>
<stop offset="1" stop-color="#F92891"/>
</linearGradient>
<linearGradient id="paint55_linear_192_375" x1="35.9679" y1="191.342" x2="51.4794" y2="189.729" gradientUnits="userSpaceOnUse">
<stop stop-color="#9E004F"/>
<stop offset="0.1464" stop-color="#B00A5D"/>
<stop offset="0.5262" stop-color="#DB227E"/>
<stop offset="0.8237" stop-color="#F53192"/>
<stop offset="1" stop-color="#FF369A"/>
</linearGradient>
<linearGradient id="paint56_linear_192_375" x1="274.56" y1="285.409" x2="296.392" y2="276.419" gradientUnits="userSpaceOnUse">
<stop stop-color="#C97DFF"/>
<stop offset="1" stop-color="#6F00FF"/>
</linearGradient>
<linearGradient id="paint57_linear_192_375" x1="277.44" y1="281.043" x2="281.336" y2="306.875" gradientUnits="userSpaceOnUse">
<stop stop-color="#E7ABFF"/>
<stop offset="1" stop-color="#7729FF"/>
</linearGradient>
<linearGradient id="paint58_linear_192_375" x1="279.4" y1="292.348" x2="298.956" y2="291.279" gradientUnits="userSpaceOnUse">
<stop stop-color="#38018D"/>
<stop offset="1" stop-color="#AE00FF"/>
</linearGradient>
<linearGradient id="paint59_linear_192_375" x1="172.337" y1="276.705" x2="155.808" y2="290.078" gradientUnits="userSpaceOnUse">
<stop stop-color="#00E1FF"/>
<stop offset="0.1647" stop-color="#02DEFF"/>
<stop offset="0.3015" stop-color="#07D3FF"/>
<stop offset="0.4283" stop-color="#0FC2FF"/>
<stop offset="0.5491" stop-color="#1BAAFF"/>
<stop offset="0.6656" stop-color="#2B8AFF"/>
<stop offset="0.779" stop-color="#3E64FF"/>
<stop offset="0.8895" stop-color="#5436FF"/>
<stop offset="0.9956" stop-color="#6E02FF"/>
<stop offset="1" stop-color="#6F00FF"/>
</linearGradient>
<linearGradient id="paint60_linear_192_375" x1="160.364" y1="279.336" x2="160.364" y2="303.382" gradientUnits="userSpaceOnUse">
<stop stop-color="#9CF8FF"/>
<stop offset="1" stop-color="#0059FF"/>
</linearGradient>
<linearGradient id="paint61_linear_192_375" x1="167.085" y1="291.11" x2="180.654" y2="292.804" gradientUnits="userSpaceOnUse">
<stop stop-color="#0051FF"/>
<stop offset="1" stop-color="#00D0FF"/>
</linearGradient>
<linearGradient id="paint62_linear_192_375" x1="435.014" y1="164.903" x2="406.764" y2="187.428" gradientUnits="userSpaceOnUse">
<stop stop-color="#00EEFF"/>
<stop offset="0.2072" stop-color="#00E5F7"/>
<stop offset="0.5509" stop-color="#00CBE0"/>
<stop offset="0.9864" stop-color="#00A2BB"/>
<stop offset="1" stop-color="#00A1BA"/>
</linearGradient>
</defs>
</svg>
